<svg xmlns="http://www.w3.org/2000/svg" version="1.1" xmlns:xlink="http://www.w3.org/1999/xlink" xmlns:svgjs="http://svgjs.dev/svgjs" width="2000" height="1846" viewBox="0 0 2000 1846"><g transform="matrix(1,0,0,1,-2.191265911156165,-1.5658035714286598)"><svg viewBox="0 0 182 168" data-background-color="#dedede" preserveAspectRatio="xMidYMid meet" height="1846" width="2000" xmlns="http://www.w3.org/2000/svg" xmlns:xlink="http://www.w3.org/1999/xlink"><g id="tight-bounds" transform="matrix(1,0,0,1,0.19940519791521183,0.1425000000000125)"><svg viewBox="0 0 181.60118960416958 167.71472643216515" height="167.71472643216515" width="181.60118960416958"><g><svg viewBox="0 0 181.60118960416958 167.71472643216515" height="167.71472643216515" width="181.60118960416958"><g><svg viewBox="0 0 181.60118960416958 167.71472643216515" height="167.71472643216515" width="181.60118960416958"><g><path d="M0 167.715v-167.715h181.601v167.715z" fill="#000000" stroke="transparent" stroke-width="0" rx="0%" data-fill-palette-color="tertiary"></path><path d="M3.283 164.431v-161.148h175.035v161.148z" fill="#dedede" stroke="transparent" stroke-width="0" rx="0%" data-fill-palette-color="quaternary"></path><path d="M9.85 157.865v-148.015h161.901v148.015z" fill="#000000" stroke="transparent" stroke-width="0" data-fill-palette-color="tertiary"></path></g><g transform="matrix(1,0,0,1,19.699740000000013,19.69974)" id="textblocktransform"><svg viewBox="0 0 142.20170960416957 128.31524643216517" height="128.31524643216517" width="142.20170960416957" id="textblock"><g><svg viewBox="0 0 142.20170960416957 100.57561757280003" height="100.57561757280003" width="142.20170960416957"><g transform="matrix(1,0,0,1,0,0)"><svg width="142.20170960416957" viewBox="-1.25 -36 57.05 40.35" height="100.57561757280003" data-palette-color="#dedede"><path d="M22.35 4.35L22.35 4.35Q20.6 4.35 18.5 3.65 16.4 2.95 14.18 1.93 11.95 0.9 9.75-0.1L9.75-0.1Q8.05 1.2 6.45 1.95 4.85 2.7 3.35 2.7L3.35 2.7Q1.9 2.7 0.88 2.08-0.15 1.45-0.7 0.53-1.25-0.4-1.25-1.3L-1.25-1.3Q-1.25-2.35-0.38-3.13 0.5-3.9 2.6-3.9L2.6-3.9Q4.05-3.9 5.78-3.53 7.5-3.15 9.4-2.6L9.4-2.6Q11.8-5.1 14.33-8.68 16.85-12.25 19.15-16.05L19.15-16.05Q17.3-16 15.93-15.88 14.55-15.75 12.65-15.5L12.65-15.5 10.95-15.25Q11.05-16.65 12.05-17.4 13.05-18.15 14.73-18.45 16.4-18.75 18.4-18.75L18.4-18.75Q18.95-18.75 19.53-18.73 20.1-18.7 20.65-18.65L20.65-18.65Q22.6-22.1 24.15-25.23 25.7-28.35 26.5-30.5L26.5-30.5Q25.7-30.7 24.7-31.08 23.7-31.45 22.6-31.85L22.6-31.85Q20.2-32.8 17.53-33.7 14.85-34.6 12.6-34.6L12.6-34.6Q11-34.6 9.73-33.95 8.45-33.3 7.7-31.73 6.95-30.15 6.95-27.4L6.95-27.4Q6.95-27 6.98-26.7 7-26.4 7.05-26.15 7.1-25.9 7.15-25.65L7.15-25.65Q5.7-25.9 5.08-26.83 4.45-27.75 4.45-29.25L4.45-29.25Q4.45-32.6 7.05-34.3 9.65-36 14.1-36L14.1-36Q16.75-36 19.03-35.52 21.3-35.05 23.4-34.4 25.5-33.75 27.48-33.27 29.45-32.8 31.4-32.8L31.4-32.8Q31.9-32.8 32.27-32.83 32.65-32.85 33-32.9L33-32.9Q32.3-32.3 31.68-31.88 31.05-31.45 30.5-31.15L30.5-31.15Q29.4-28.55 27.73-25.23 26.05-21.9 24-18.35L24-18.35Q25.5-18.2 26.83-18.05 28.15-17.9 29.3-17.9L29.3-17.9Q28.75-17.1 28.08-16.75 27.4-16.4 26.18-16.3 24.95-16.2 22.7-16.15L22.7-16.15Q20.25-12.1 17.43-8.35 14.6-4.6 11.8-1.9L11.8-1.9Q15.05-0.9 18.28 0 21.5 0.9 24.05 0.9L24.05 0.9Q25.1 0.9 25.95 0.7 26.8 0.5 27.6 0.1L27.6 0.1Q26.8 2.4 25.48 3.38 24.15 4.35 22.35 4.35ZM3.1 1.35L3.1 1.35Q4.1 1.35 5.28 0.73 6.45 0.1 7.7-1L7.7-1Q6.05-1.7 4.55-2.15 3.05-2.6 1.9-2.6L1.9-2.6Q0.8-2.6 0.43-2.25 0.05-1.9 0.05-1.4L0.05-1.4Q0.05-0.6 0.88 0.38 1.7 1.35 3.1 1.35ZM41.35 4.35L41.35 4.35Q38.65 4.35 36.25 3.38 33.85 2.4 32.37 0.4 30.9-1.6 30.9-4.6L30.9-4.6Q30.9-7.2 31.92-8.65 32.95-10.1 34.45-10.7 35.95-11.3 37.3-11.3L37.3-11.3Q35.95-9.85 35.25-8.1 34.55-6.35 34.55-4.6L34.55-4.6Q34.55-2.75 35.37-1.15 36.2 0.45 37.9 1.43 39.6 2.4 42.2 2.4L42.2 2.4Q44.45 2.4 46.6 1.58 48.75 0.75 50.12-0.88 51.5-2.5 51.5-4.9L51.5-4.9Q51.5-7.05 50.4-8.6 49.3-10.15 47.57-11.35 45.85-12.55 43.9-13.65 41.95-14.75 40.22-15.98 38.5-17.2 37.4-18.8 36.3-20.4 36.3-22.65L36.3-22.65Q36.3-24.75 37.3-27.05 38.3-29.35 40.17-31.4 42.05-33.45 44.67-34.73 47.3-36 50.55-36L50.55-36Q53.5-36 54.65-34.58 55.8-33.15 55.8-31L55.8-31Q55.8-29.2 55.17-27.13 54.55-25.05 53.65-23.18 52.75-21.3 51.95-20L51.95-20Q51.05-20.2 50.67-20.78 50.3-21.35 50.3-22.15L50.3-22.15Q50.3-23.2 50.75-24.55 51.2-25.9 51.77-27.35 52.35-28.8 52.8-30.18 53.25-31.55 53.25-32.65L53.25-32.65Q53.25-33.65 52.65-34.23 52.05-34.8 50.45-34.8L50.45-34.8Q48.1-34.8 46.1-33.7 44.1-32.6 42.6-30.88 41.1-29.15 40.27-27.25 39.45-25.35 39.45-23.8L39.45-23.8Q39.45-21.95 40.52-20.63 41.6-19.3 43.3-18.23 45-17.15 46.92-16.07 48.85-15 50.55-13.7 52.25-12.4 53.32-10.63 54.4-8.85 54.4-6.3L54.4-6.3Q54.4-3.7 53.25-1.73 52.1 0.25 50.17 1.6 48.25 2.95 45.95 3.65 43.65 4.35 41.35 4.35Z" opacity="1" transform="matrix(1,0,0,1,0,0)" fill="#dedede" class="wordmark-text-0" data-fill-palette-color="quaternary" id="text-0"></path></svg></g></svg></g><g transform="matrix(1,0,0,1,27.16052653439639,107.14219757280003)"><svg viewBox="0 0 87.88065653537679 21.173048859365142" height="21.173048859365142" width="87.88065653537679"><g transform="matrix(1,0,0,1,0,0)"><svg width="87.88065653537679" viewBox="1.6 -39.6 210.83 50.8" height="21.173048859365142" data-palette-color="#dedede"><path d="M16.25-25.65Q19.6-25.65 22.38-24.23 25.15-22.8 26.8-19.93 28.45-17.05 28.45-12.85L28.45-12.85Q28.45-8.8 26.88-5.88 25.3-2.95 22.5-1.45 19.7 0.05 16.1 0.05L16.1 0.05Q13.15 0.05 10.75-0.8 8.35-1.65 7.2-2.5L7.2-2.5 7.05 2.55 6.85 9.6Q6.8 10.35 6.28 10.78 5.75 11.2 4.9 11.2L4.9 11.2Q4 11.2 3.53 10.73 3.05 10.25 3.05 9.45L3.05 9.45Q3.15 5.4 3.25 3.15L3.25 3.15 3.4-2.3Q3.55-8.25 3.55-17.55L3.55-17.55Q3.55-19.1 3.2-20.13 2.85-21.15 2.1-22.05L2.1-22.05Q2.05-22.1 1.83-22.33 1.6-22.55 1.6-23L1.6-23Q1.6-23.65 2.33-24.23 3.05-24.8 3.7-24.8L3.7-24.8Q4.05-24.8 4.33-24.63 4.6-24.45 4.65-24.4L4.65-24.4Q5-24.1 5.63-23.1 6.25-22.1 6.65-21.15L6.65-21.15Q7.85-22.9 10.3-24.28 12.75-25.65 16.25-25.65L16.25-25.65ZM16.05-3.15Q19.85-3.15 22.23-5.7 24.6-8.25 24.6-12.9L24.6-12.9Q24.6-17.75 22.15-20.05 19.7-22.35 16.1-22.35L16.1-22.35Q13.6-22.35 11.6-21.23 9.6-20.1 8.5-18.6 7.4-17.1 7.4-16.2L7.4-16.2Q7.4-10.7 7.35-6.75L7.35-6.75Q7.6-6.1 8.95-5.23 10.3-4.35 12.23-3.75 14.15-3.15 16.05-3.15L16.05-3.15ZM45.75 0.05Q40.1 0.05 36.37-2.95 32.65-5.95 32.65-12.35L32.65-12.35Q32.65-16.35 34.17-19.38 35.7-22.4 38.6-24.1 41.5-25.8 45.45-25.8L45.45-25.8Q49.25-25.8 52.27-24.23 55.3-22.65 57.02-19.63 58.75-16.6 58.75-12.4L58.75-12.4Q58.75-6.3 55.17-3.13 51.6 0.05 45.75 0.05L45.75 0.05ZM45.65-3.1Q49.65-3.1 52.27-5.48 54.9-7.85 54.9-12.45L54.9-12.45Q54.9-15.45 53.72-17.78 52.55-20.1 50.42-21.38 48.3-22.65 45.55-22.65L45.55-22.65Q41.45-22.65 38.97-19.85 36.5-17.05 36.5-12.45L36.5-12.45Q36.5-7.6 39.15-5.35 41.8-3.1 45.65-3.1L45.65-3.1ZM75.8-25.7Q79-25.7 80.8-23.68 82.59-21.65 82.59-18.75L82.59-18.75Q82.59-16 80.95-14.43 79.3-12.85 76.7-12.85L76.7-12.85Q75.7-12.85 75.27-13.15 74.84-13.45 74.84-14.25L74.84-14.25Q74.84-15.55 76.09-15.6L76.09-15.6Q79.34-15.9 79.34-18.8L79.34-18.8Q79.34-20.35 78.5-21.45 77.65-22.55 75.75-22.55L75.75-22.55Q73.75-22.55 72.27-20.85 70.8-19.15 69.95-16.63 69.09-14.1 68.95-11.65L68.95-11.65Q68.65-7.05 68.65-2.95L68.65-2.95Q68.65-0.9 68.27-0.25 67.9 0.4 66.8 0.4L66.8 0.4Q65.7 0.4 65.27-0.13 64.84-0.65 64.84-1.95L64.84-1.95 64.8-11.5Q64.8-14.8 64.3-20.2L64.3-20.2Q64-23.35 63.95-24.7L63.95-24.7Q63.9-25.5 64.4-25.93 64.9-26.35 65.8-26.35L65.8-26.35Q67.34-26.35 67.45-24.85L67.45-24.85Q67.75-21.7 67.8-18.7L67.8-18.7Q68.65-22 70.75-23.85 72.84-25.7 75.8-25.7L75.8-25.7ZM103.39-8.15Q104.29-8.15 104.67-7.73 105.04-7.3 105.04-6.2L105.04-6.2Q105.04-3.6 103.32-1.8 101.59 0 98.89 0L98.89 0Q95.14 0 93.52-3.3 91.89-6.6 91.89-13.55L91.89-13.55Q91.89-16.15 92.14-19.5L92.14-19.5Q91.59-19.55 89.04-19.75L89.04-19.75Q87.54-19.9 87.54-21.4L87.54-21.4Q87.54-22.9 88.99-22.9L88.99-22.9Q89.39-22.9 90.69-22.8L90.69-22.8Q91.79-22.7 92.39-22.7L92.39-22.7Q92.74-26.4 93.59-32L93.59-32Q93.69-32.75 94.12-33.13 94.54-33.5 95.49-33.5L95.49-33.5Q96.44-33.5 96.99-33 97.54-32.5 97.44-31.75L97.44-31.75 97.19-30.1Q96.44-24.3 96.24-22.5L96.24-22.5 100.24-22.4Q100.99-22.4 101.37-22.1 101.74-21.8 101.74-21.05L101.74-21.05Q101.74-20.1 101.37-19.78 100.99-19.45 99.94-19.4L99.94-19.4Q98.39-19.35 95.94-19.35L95.94-19.35Q95.69-16.2 95.69-13.55L95.69-13.55Q95.69-8.7 96.47-5.95 97.24-3.2 99.29-3.2L99.29-3.2Q100.39-3.2 101.04-4.05 101.69-4.9 101.79-6.6L101.79-6.6Q101.84-7.4 102.12-7.78 102.39-8.15 103.39-8.15L103.39-8.15ZM120.74-37Q127.69-37 127.69-29.1L127.69-29.1Q127.69-27.3 125.84-27.3L125.84-27.3Q123.89-27.3 123.89-29L123.89-29Q123.89-31.25 123.29-32.5 122.69-33.75 120.79-33.75L120.79-33.75Q118.64-33.75 117.81-31.95 116.99-30.15 116.99-26.5L116.99-26.5Q116.99-22.65 117.04-20.25L117.04-20.25 120.99-20.25Q121.69-20.25 122.09-19.83 122.49-19.4 122.49-18.6L122.49-18.6Q122.49-17.25 120.99-17.2L120.99-17.2 117.09-17.1Q117.19-7.7 117.19-1.7L117.19-1.7Q117.19-0.8 116.67-0.4 116.14 0 115.34 0L115.34 0Q114.44 0 113.99-0.45 113.54-0.9 113.54-1.65L113.54-1.65Q113.54-6.25 113.34-14.25L113.34-14.25 113.29-17 110.29-16.95Q109.39-16.95 108.99-17.35 108.59-17.75 108.59-18.55L108.59-18.55Q108.59-19.25 108.94-19.65 109.29-20.05 110.24-20.1L110.24-20.1 113.24-20.15Q113.14-25.05 113.14-26.55L113.14-26.55Q113.14-31.35 115.02-34.18 116.89-37 120.74-37L120.74-37ZM141.94 0.05Q136.29 0.05 132.56-2.95 128.84-5.95 128.84-12.35L128.84-12.35Q128.84-16.35 130.36-19.38 131.89-22.4 134.79-24.1 137.69-25.8 141.64-25.8L141.64-25.8Q145.44-25.8 148.46-24.23 151.49-22.65 153.21-19.63 154.94-16.6 154.94-12.4L154.94-12.4Q154.94-6.3 151.36-3.13 147.79 0.05 141.94 0.05L141.94 0.05ZM141.84-3.1Q145.84-3.1 148.46-5.48 151.09-7.85 151.09-12.45L151.09-12.45Q151.09-15.45 149.91-17.78 148.74-20.1 146.61-21.38 144.49-22.65 141.74-22.65L141.74-22.65Q137.64-22.65 135.16-19.85 132.69-17.05 132.69-12.45L132.69-12.45Q132.69-7.6 135.34-5.35 137.99-3.1 141.84-3.1L141.84-3.1ZM162.69-0.45Q161.84-0.45 161.31-0.9 160.78-1.35 160.78-2.2L160.78-2.2 160.49-37.8Q160.49-38.65 161.03-39.13 161.59-39.6 162.49-39.6L162.49-39.6Q163.34-39.6 163.84-39.13 164.34-38.65 164.34-37.85L164.34-37.85 164.59-2.2Q164.59-1.35 164.06-0.9 163.53-0.45 162.69-0.45L162.69-0.45ZM177.63-28.3Q176.33-28.3 175.43-29.18 174.53-30.05 174.53-31.4L174.53-31.4Q174.53-32.75 175.43-33.63 176.33-34.5 177.73-34.5L177.73-34.5Q179.08-34.5 179.96-33.65 180.83-32.8 180.83-31.45L180.83-31.45Q180.83-30.1 179.91-29.2 178.98-28.3 177.63-28.3L177.63-28.3ZM176.88-0.3Q175.98-0.3 175.46-0.75 174.93-1.2 174.93-1.95L174.93-1.95 175.43-23.2Q175.43-24.05 175.96-24.5 176.48-24.95 177.38-24.95L177.38-24.95Q178.28-24.95 178.81-24.5 179.33-24.05 179.33-23.15L179.33-23.15 178.83-1.95Q178.78-1.15 178.26-0.73 177.73-0.3 176.88-0.3L176.88-0.3ZM199.43 0.05Q193.78 0.05 190.06-2.95 186.33-5.95 186.33-12.35L186.33-12.35Q186.33-16.35 187.86-19.38 189.38-22.4 192.28-24.1 195.18-25.8 199.13-25.8L199.13-25.8Q202.93-25.8 205.96-24.23 208.98-22.65 210.71-19.63 212.43-16.6 212.43-12.4L212.43-12.4Q212.43-6.3 208.86-3.13 205.28 0.05 199.43 0.05L199.43 0.05ZM199.33-3.1Q203.33-3.1 205.96-5.48 208.58-7.85 208.58-12.45L208.58-12.45Q208.58-15.45 207.41-17.78 206.23-20.1 204.11-21.38 201.98-22.65 199.23-22.65L199.23-22.65Q195.13-22.65 192.66-19.85 190.18-17.05 190.18-12.45L190.18-12.45Q190.18-7.6 192.83-5.35 195.48-3.1 199.33-3.1L199.33-3.1Z" opacity="1" transform="matrix(1,0,0,1,0,0)" fill="#dedede" class="slogan-text-1" data-fill-palette-color="quaternary" id="text-1"></path></svg></g></svg></g></svg></g></svg></g><g></g></svg></g><defs></defs></svg><rect width="181.60118960416958" height="167.71472643216515" fill="none" stroke="none" visibility="hidden"></rect></g></svg></g></svg>