<svg xmlns="http://www.w3.org/2000/svg" version="1.1" xmlns:xlink="http://www.w3.org/1999/xlink" xmlns:svgjs="http://svgjs.dev/svgjs" width="1000" height="750" viewBox="0 0 1000 750"><rect width="1000" height="750" fill="#ffffff"></rect><g transform="matrix(0.4558938329430133,0,0,0.4558938329430133,271.6520819181443,82.17370212765968)"><svg viewBox="0 0 110 141" data-background-color="#ffffff" preserveAspectRatio="xMidYMid meet" height="1281" width="1000" xmlns="http://www.w3.org/2000/svg" xmlns:xlink="http://www.w3.org/1999/xlink"><g id="tight-bounds" transform="matrix(1,0,0,1,0.09675537142857138,0.19949999999997203)"><svg viewBox="0 0 109.80648925714287 140.60052000000002" height="140.60052000000002" width="109.80648925714287"><g><svg viewBox="0 0 109.80648925714287 140.60052000000002" height="140.60052000000002" width="109.80648925714287"><g><svg viewBox="0 0 109.80648925714287 140.60052000000002" height="140.60052000000002" width="109.80648925714287"><g><path d="M0 140.601v-140.601h109.806v140.601z" fill="#336a86" stroke="transparent" stroke-width="0" rx="0%" data-fill-palette-color="tertiary"></path><path d="M3.283 137.317v-134.034h103.24v134.034z" fill="#ffffff" stroke="transparent" stroke-width="0" rx="0%" data-fill-palette-color="quaternary"></path><path d="M9.85 130.751v-120.901h90.107v120.901z" fill="#336a86" stroke="transparent" stroke-width="0" data-fill-palette-color="tertiary"></path></g><g transform="matrix(1,0,0,1,19.69974,19.69974)" id="textblocktransform"><svg viewBox="0 0 70.40700925714287 101.20104" height="101.20104" width="70.40700925714287" id="textblock"><g><svg viewBox="0 0 70.40700925714287 101.20104" height="101.20104" width="70.40700925714287"><g transform="matrix(1,0,0,1,0,0)"><svg width="70.40700925714287" viewBox="1.55 -35 24.349999999999998 35" height="101.20104" data-palette-color="#ffffff"><path d="M1.55 0L1.55-2.5 22.05-32.45 2.2-32.45 2.2-35 25.6-35 25.6-32.5 5.1-2.55 25.9-2.55 25.9 0 1.55 0Z" opacity="1" transform="matrix(1,0,0,1,0,0)" fill="#ffffff" class="wordmark-text-0" data-fill-palette-color="quaternary" id="text-0"></path></svg></g></svg></g></svg></g></svg></g><g></g></svg></g><defs></defs></svg><rect width="109.80648925714287" height="140.60052000000002" fill="none" stroke="none" visibility="hidden"></rect></g></svg></g></svg>